<?xml version="1.0" standalone="no"?>
<!DOCTYPE svg PUBLIC "-//W3C//DTD SVG 20010904//EN"
 "http://www.w3.org/TR/2001/REC-SVG-20010904/DTD/svg10.dtd">
<svg version="1.0" xmlns="http://www.w3.org/2000/svg"
 width="512.000000pt" height="512.000000pt" viewBox="0 0 512.000000 512.000000"
 preserveAspectRatio="xMidYMid meet">

<g transform="translate(0.000000,512.000000) scale(0.100000,-0.100000)"
fill="#000000" stroke="none">
<path d="M544 5110 c-31 -12 -54 -49 -54 -87 0 -24 175 -383 607 -1248 l608
-1215 -608 -1215 c-463 -927 -607 -1223 -607 -1251 0 -26 8 -43 29 -65 46 -46
77 -40 205 40 2851 1773 3865 2407 3884 2427 30 34 30 94 0 128 -13 14 -867
550 -1898 1192 -1031 641 -1924 1197 -1984 1235 -109 68 -137 77 -182 59z"/>
</g>
</svg>
